<svg width="248" height="83" viewBox="0 0 248 83" fill="none" xmlns="http://www.w3.org/2000/svg">
<g clip-path="url(#clip0_709_2)">
<rect width="248" height="83" fill="white"/>
<path d="M21.776 66H13.712L17.168 22.864H26.384C31.632 36.8587 34.6187 44.944 35.344 47.12C36.112 49.296 36.88 51.6853 37.648 54.288C38.9707 49.8507 40.8053 44.6027 43.152 38.544L49.168 22.864H58.384L62.608 66H54.544L53.008 49.168L51.856 34.064C50.704 37.3067 46.864 47.7387 40.336 65.36H34.832L28.944 49.168L23.888 34.256C23.888 36.9013 23.184 47.4827 21.776 66Z" fill="black"/>
<path d="M124.331 41.3404C124.331 48.713 121.402 55.7836 116.189 60.9969C110.975 66.2101 103.905 69.1389 96.5321 69.1389C89.1595 69.1389 82.0889 66.2101 76.8756 60.9969C71.6624 55.7836 68.7336 48.713 68.7336 41.3404C68.7336 33.9677 71.6624 26.8971 76.8756 21.6839C82.0889 16.4706 89.1595 13.5419 96.5321 13.5419C103.905 13.5419 110.975 16.4706 116.189 21.6839C121.402 26.8971 124.331 33.9677 124.331 41.3404Z" stroke="black" stroke-width="2.99998"/>
<path d="M129.281 68.6588L127.718 68.9641L126.429 69.0591L124.477 68.9089L122.526 68.4586L120.925 67.8581L118.773 66.8073L117.122 65.9567L115.57 65.1561L114.42 64.5056L113.219 63.9552L112.168 63.5048L110.466 62.6042L107.865 61.6034L106.263 60.9529L104.012 60.4525L102.711 60.1023L103.711 59.752L104.362 59.5018L105.363 59.0014L106.213 58.501L106.814 58.1508L109.716 58.3009L110.417 58.451L111.718 58.8013L113.169 59.4517L115.02 60.1022L116.521 60.6526L117.722 61.2531L119.073 61.9036L120.224 62.454L121.175 62.8043L122.045 63.113L123.149 63.4203L124.177 63.6049L125.028 63.6549H125.828L126.729 63.6049L127.38 63.5548L127.991 63.5133L128.43 63.4548L128.668 65.0233L128.996 66.8574L129.281 68.6588Z" fill="black"/>
<path d="M121.868 67.158L122.551 67.4001L123.684 67.6713L124.576 67.8085L125.827 67.9086H126.978L127.877 67.8298L128.52 67.7189L128.805 67.6521L128.617 66.6076L128.467 65.807L128.339 65.1423L128.229 64.5561L127.425 64.6915L126.578 64.8062H125.677L124.926 64.7562L123.854 64.6177L123.22 64.4944L122.412 64.2774L121.874 64.0557V64.9563L121.862 66.3799L121.868 67.158Z" fill="#E6E6E6"/>
<path d="M121.389 66.8163L121.475 64.0057L118.522 62.6693L116.12 61.4037L115.37 63.8555L117.922 65.2182L120.009 66.272L121.389 66.8163Z" fill="#E6E6E6"/>
<path d="M113.619 63.1052L114.77 63.6056L115.57 61.4539L113.619 63.1052Z" fill="#E6E6E6"/>
<path d="M109.165 59.1021L108.314 59.7026L107.514 60.0028L106.213 60.3031L105.162 60.4532H104.561L103.861 60.4031L102.81 60.1029L103.861 59.8027L104.511 59.5525L105.362 59.1021L105.862 58.902L109.165 59.1021Z" fill="#E6E6E6"/>
<path d="M127.909 64.2689L127.829 63.8382L128.131 63.7909L128.205 64.2225L127.909 64.2689Z" fill="white"/>
<path d="M127.217 64.3691L127.137 63.9384L127.44 63.8911L127.513 64.3227L127.217 64.3691Z" fill="white"/>
<path d="M126.486 64.434L126.444 63.998L126.749 63.9773L126.785 64.4137L126.486 64.434Z" fill="white"/>
<path d="M125.763 64.449L125.759 64.011L126.065 64.0171L126.063 64.4549L125.763 64.449Z" fill="white"/>
<path d="M124.999 64.407L125.034 63.9704L125.338 64.0031L125.298 64.439L124.999 64.407Z" fill="white"/>
<path d="M124.197 64.3428L124.254 63.9085L124.556 63.9571L124.493 64.3904L124.197 64.3428Z" fill="white"/>
<path d="M123.431 64.2117L123.488 63.7774L123.791 63.826L123.728 64.2593L123.431 64.2117Z" fill="white"/>
<path d="M122.653 64.0125L122.756 63.5865L123.052 63.6665L122.943 64.0908L122.653 64.0125Z" fill="white"/>
<path d="M121.916 63.8057L122.018 63.3797L122.314 63.4597L122.206 63.884L121.916 63.8057Z" fill="white"/>
<path d="M121.203 63.5493L121.349 63.1364L121.635 63.2469L121.483 63.6575L121.203 63.5493Z" fill="white"/>
<path d="M120.479 63.2874L120.625 62.8744L120.911 62.9849L120.759 63.3955L120.479 63.2874Z" fill="white"/>
<path d="M119.789 63.0046L119.935 62.5917L120.221 62.7022L120.069 63.1128L119.789 63.0046Z" fill="white"/>
<path d="M119.065 62.6829L119.232 62.2782L119.512 62.4034L119.339 62.8056L119.065 62.6829Z" fill="white"/>
<path d="M118.368 62.352L118.536 61.9472L118.816 62.0725L118.642 62.4746L118.368 62.352Z" fill="white"/>
<path d="M117.665 61.9816L117.854 61.5862L118.126 61.726L117.932 62.1185L117.665 61.9816Z" fill="white"/>
<path d="M116.948 61.6023L117.137 61.207L117.41 61.3467L117.215 61.7392L116.948 61.6023Z" fill="white"/>
<path d="M116.307 61.2646L116.495 60.8692L116.768 61.0089L116.574 61.4014L116.307 61.2646Z" fill="white"/>
<path d="M128.598 68.4882L128.518 68.0575L128.821 68.0103L128.894 68.4419L128.598 68.4882Z" fill="white"/>
<path d="M127.906 68.5883L127.826 68.1576L128.129 68.1104L128.203 68.542L127.906 68.5883Z" fill="white"/>
<path d="M127.175 68.6534L127.133 68.2174L127.439 68.1967L127.474 68.6331L127.175 68.6534Z" fill="white"/>
<path d="M126.452 68.7235L126.448 68.2855L126.755 68.2915L126.752 68.7293L126.452 68.7235Z" fill="white"/>
<path d="M125.689 68.6814L125.723 68.2448L126.028 68.2775L125.987 68.7135L125.689 68.6814Z" fill="white"/>
<path d="M124.886 68.6171L124.943 68.1828L125.246 68.2314L125.182 68.6647L124.886 68.6171Z" fill="white"/>
<path d="M124.107 68.5138L124.164 68.0795L124.466 68.1281L124.403 68.5614L124.107 68.5138Z" fill="white"/>
<path d="M123.343 68.3284L123.445 67.9024L123.741 67.9824L123.633 68.4067L123.343 68.3284Z" fill="white"/>
<path d="M122.591 68.094L122.694 67.6681L122.99 67.748L122.881 68.1723L122.591 68.094Z" fill="white"/>
<path d="M121.864 67.8377L122.011 67.4247L122.296 67.5352L122.144 67.9458L121.864 67.8377Z" fill="white"/>
<path d="M121.141 67.5757L121.287 67.1628L121.573 67.2732L121.421 67.6839L121.141 67.5757Z" fill="white"/>
<path d="M120.437 67.2654L120.583 66.8525L120.869 66.9629L120.717 67.3736L120.437 67.2654Z" fill="white"/>
<path d="M119.685 66.9298L119.853 66.5251L120.132 66.6504L119.959 67.0525L119.685 66.9298Z" fill="white"/>
<path d="M119.03 66.5989L119.198 66.1942L119.477 66.3195L119.304 66.7216L119.03 66.5989Z" fill="white"/>
<path d="M118.355 66.2422L118.543 65.8468L118.816 65.9866L118.622 66.3791L118.355 66.2422Z" fill="white"/>
<path d="M117.61 65.8907L117.798 65.4953L118.071 65.635L117.877 66.0275L117.61 65.8907Z" fill="white"/>
<path d="M116.914 65.5529L117.102 65.1575L117.375 65.2972L117.181 65.6898L116.914 65.5529Z" fill="white"/>
<path d="M116.197 65.153L116.385 64.7576L116.658 64.8973L116.464 65.2899L116.197 65.153Z" fill="white"/>
<path d="M115.466 64.7669L115.654 64.3715L115.927 64.5112L115.733 64.9038L115.466 64.7669Z" fill="white"/>
<path d="M114.825 64.4203L114.992 64.0156L115.272 64.1409L115.099 64.543L114.825 64.4203Z" fill="white"/>
<path d="M114.129 64.0734L114.275 63.6605L114.561 63.7709L114.409 64.1816L114.129 64.0734Z" fill="white"/>
<path d="M113.405 63.7448L113.572 63.3401L113.852 63.4653L113.679 63.8675L113.405 63.7448Z" fill="white"/>
<path d="M106.706 58.6859L107.204 58.3895L106.883 58.3939L106.392 58.6902L106.706 58.6859Z" fill="white"/>
<path d="M107.359 58.725L107.857 58.4286L107.536 58.433L107.045 58.7293L107.359 58.725Z" fill="white"/>
<path d="M108.032 58.7834L108.529 58.4871L108.209 58.4915L107.718 58.7877L108.032 58.7834Z" fill="white"/>
<path d="M108.744 58.8321L109.241 58.5358L108.921 58.5402L108.43 58.8364L108.744 58.8321Z" fill="white"/>
<path d="M109.543 58.8907L110.041 58.5944L109.72 58.5988L109.229 58.895L109.543 58.8907Z" fill="white"/>
<path d="M116.11 41.184C116.131 43.8268 115.63 46.4477 114.633 48.8956C113.637 51.3435 112.166 53.5699 110.305 55.4464C108.444 57.3229 106.23 58.8123 103.79 59.8287C101.35 60.8451 98.7336 61.3684 96.0907 61.3684C93.4478 61.3684 90.8311 60.8451 88.3915 59.8287C85.9518 58.8123 83.7376 57.3229 81.8765 55.4464C80.0154 53.5699 78.5443 51.3435 77.548 48.8956C76.5517 46.4477 76.05 43.8268 76.0717 41.184C76.05 38.5412 76.5517 35.9202 77.548 33.4723C78.5443 31.0244 80.0154 28.798 81.8765 26.9215C83.7376 25.045 85.9518 23.5556 88.3915 22.5392C90.8311 21.5228 93.4478 20.9995 96.0907 20.9995C98.7336 20.9995 101.35 21.5228 103.79 22.5392C106.23 23.5556 108.444 25.045 110.305 26.9215C112.166 28.798 113.637 31.0244 114.633 33.4723C115.63 35.9202 116.131 38.5412 116.11 41.184Z" fill="black"/>
<path d="M113.811 41.1841C113.831 43.5238 113.387 45.844 112.505 48.0112C111.623 50.1783 110.32 52.1493 108.673 53.8105C107.025 55.4717 105.065 56.7903 102.905 57.6901C100.745 58.5899 98.4286 59.0532 96.0889 59.0532C93.7492 59.0532 91.4326 58.5899 89.2728 57.6901C87.1131 56.7903 85.1528 55.4717 83.5052 53.8105C81.8576 52.1493 80.5553 50.1783 79.6733 48.0112C78.7912 45.844 78.3471 43.5238 78.3663 41.1841C78.3471 38.8445 78.7912 36.5242 79.6733 34.3571C80.5553 32.19 81.8576 30.219 83.5052 28.5577C85.1528 26.8965 87.1131 25.578 89.2728 24.6782C91.4326 23.7783 93.7492 23.3151 96.0889 23.3151C98.4286 23.3151 100.745 23.7783 102.905 24.6782C105.065 25.578 107.025 26.8965 108.673 28.5577C110.32 30.219 111.623 32.19 112.505 34.3571C113.387 36.5242 113.831 38.8445 113.811 41.1841Z" stroke="#666666" stroke-width="0.794993"/>
<path d="M112.04 41.1834C112.057 43.2891 111.658 45.3773 110.864 47.3277C110.07 49.2781 108.898 51.0521 107.415 52.5472C105.932 54.0423 104.168 55.229 102.224 56.0388C100.28 56.8486 98.1956 57.2656 96.0898 57.2656C93.9841 57.2656 91.8992 56.8486 89.9554 56.0388C88.0116 55.229 86.2473 54.0423 84.7645 52.5472C83.2816 51.0521 82.1095 49.2781 81.3157 47.3277C80.5219 45.3773 80.1221 43.2891 80.1395 41.1834C80.1221 39.0777 80.5219 36.9894 81.3157 35.039C82.1095 33.0886 83.2816 31.3147 84.7645 29.8196C86.2473 28.3245 88.0116 27.1378 89.9554 26.328C91.8992 25.5181 93.9841 25.1012 96.0898 25.1012C98.1956 25.1012 100.28 25.5181 102.224 26.328C104.168 27.1378 105.932 28.3245 107.415 29.8196C108.898 31.3147 110.07 33.0886 110.864 35.039C111.658 36.9894 112.057 39.0777 112.04 41.1834Z" stroke="#666666" stroke-width="0.715496"/>
<path d="M107.717 41.1847C107.73 42.7198 107.439 44.2421 106.86 45.664C106.281 47.0858 105.427 48.379 104.346 49.4689C103.265 50.5588 101.979 51.4239 100.562 52.0143C99.1446 52.6047 97.6247 52.9086 96.0896 52.9086C94.5545 52.9086 93.0346 52.6047 91.6176 52.0143C90.2006 51.4239 88.9145 50.5588 87.8335 49.4689C86.7525 48.379 85.898 47.0858 85.3193 45.664C84.7406 44.2421 84.4492 42.7198 84.4618 41.1847C84.4492 39.6497 84.7406 38.1273 85.3193 36.7055C85.898 35.2837 86.7525 33.9905 87.8335 32.9005C88.9145 31.8106 90.2006 30.9455 91.6176 30.3551C93.0346 29.7648 94.5545 29.4608 96.0896 29.4608C97.6247 29.4608 99.1446 29.7648 100.562 30.3551C101.979 30.9455 103.265 31.8106 104.346 32.9005C105.427 33.9905 106.281 35.2837 106.86 36.7055C107.439 38.1273 107.73 39.6497 107.717 41.1847Z" stroke="#666666" stroke-width="0.521596"/>
<path d="M104.566 41.1836C104.575 42.3027 104.363 43.4124 103.941 44.4489C103.519 45.4855 102.896 46.4282 102.108 47.2227C101.32 48.0173 100.382 48.6479 99.3493 49.0783C98.3162 49.5087 97.2083 49.7303 96.0892 49.7303C94.9701 49.7303 93.8621 49.5087 92.8291 49.0783C91.7961 48.6479 90.8585 48.0173 90.0705 47.2227C89.2825 46.4282 88.6595 45.4855 88.2377 44.4489C87.8158 43.4124 87.6034 42.3027 87.6126 41.1836C87.6034 40.0646 87.8158 38.9548 88.2377 37.9183C88.6595 36.8818 89.2825 35.9391 90.0705 35.1445C90.8585 34.35 91.7961 33.7193 92.8291 33.2889C93.8621 32.8585 94.9701 32.637 96.0892 32.637C97.2083 32.637 98.3162 32.8585 99.3493 33.2889C100.382 33.7193 101.32 34.35 102.108 35.1445C102.896 35.9391 103.519 36.8818 103.941 37.9183C104.363 38.9548 104.575 40.0646 104.566 41.1836Z" stroke="#666666" stroke-width="0.38024"/>
<path d="M84.5061 57.3003C95.5436 46.0471 95.5436 46.0471 95.5436 46.0471Z" fill="#666666"/>
<path d="M84.5061 57.3003C95.5436 46.0471 95.5436 46.0471 95.5436 46.0471" stroke="#4D4D4D" stroke-width="0.40799"/>
<path d="M110.081 55.444C98.6365 43.2385 98.6365 43.2385 98.6365 43.2385Z" fill="#666666"/>
<path d="M110.081 55.444C98.6365 43.2385 98.6365 43.2385 98.6365 43.2385" stroke="#4D4D4D" stroke-width="0.43268"/>
<path d="M93.8675 38.9376C82.907 27.8024 82.907 27.8024 82.907 27.8024Z" fill="#666666"/>
<path d="M93.8675 38.9376C82.907 27.8024 82.907 27.8024 82.907 27.8024" stroke="#4D4D4D" stroke-width="0.40444"/>
<path d="M96.437 45.2712L112.332 29.4543Z" fill="#666666"/>
<path d="M96.437 45.2712L112.332 29.4543" stroke="#4D4D4D" stroke-width="0.58046"/>
<path opacity="0.66372" d="M82.1683 50.7088C82.9323 49.093 84.2148 47.8034 85.7336 47.1236C87.2524 46.4438 88.883 46.4295 90.2669 47.0839C91.6507 47.7383 92.6744 49.0078 93.1127 50.6131C93.551 52.2183 93.368 54.0279 92.6039 55.6437C91.8399 57.2594 90.5574 58.5491 89.0386 59.2289C87.5199 59.9087 85.8892 59.9229 84.5053 59.2685C83.1215 58.6141 82.0978 57.3447 81.6595 55.7394C81.2212 54.1341 81.4042 52.3246 82.1683 50.7088Z" fill="url(#paint0_radial_709_2)"/>
<path opacity="0.66372" d="M83.3455 30.9635C85.0601 31.468 86.5328 32.5352 87.4396 33.9304C88.3465 35.3256 88.6132 36.9345 88.1811 38.4031C87.749 39.8718 86.6535 41.0798 85.1356 41.7616C83.6177 42.4433 81.8017 42.5429 80.0871 42.0384C78.3725 41.5339 76.8998 40.4667 75.993 39.0715C75.0862 37.6763 74.8194 36.0674 75.2515 34.5988C75.6836 33.1301 76.7791 31.9221 78.2971 31.2403C79.815 30.5586 81.631 30.459 83.3455 30.9635Z" fill="url(#paint1_radial_709_2)"/>
<path d="M96.348 17.0227C83.1641 17.0227 72.4753 27.7118 72.4753 40.8954C72.4753 54.0793 83.1645 64.7634 96.348 64.7634C109.532 64.7634 120.221 54.0793 120.221 40.8954C120.221 27.7115 109.532 17.0227 96.348 17.0227ZM96.3232 18.4001C100.485 18.4001 103.861 21.7714 103.861 25.9335C103.861 30.0954 100.485 33.4717 96.3232 33.4717C92.1612 33.4717 88.7898 30.0954 88.7898 25.9335C88.7898 21.7716 92.1611 18.4001 96.3232 18.4001ZM81.7885 28.7081C85.9504 28.7081 89.3219 32.0794 89.3219 36.2415C89.3219 40.4034 85.9506 43.7797 81.7885 43.7797C77.6266 43.7797 74.2503 40.4034 74.2503 36.2415C74.2503 32.0796 77.6266 28.7081 81.7885 28.7081ZM110.789 28.8623C114.951 28.8623 118.327 32.2386 118.327 36.4005C118.327 40.5624 114.951 43.9339 110.789 43.9339C106.627 43.9339 103.255 40.5626 103.255 36.4005C103.255 32.2386 106.627 28.8623 110.789 28.8623ZM93.1671 35.5603C93.6998 35.5603 94.1318 35.9923 94.1318 36.5249C94.1318 37.0576 93.6998 37.4846 93.1671 37.4846C92.6345 37.4846 92.2025 37.0576 92.2025 36.5249C92.2025 35.9923 92.6345 35.5603 93.1671 35.5603ZM99.4772 35.61C100.01 35.61 100.437 36.042 100.437 36.5747C100.437 37.1073 100.01 37.5393 99.4772 37.5393C98.9445 37.5393 98.5125 37.1073 98.5125 36.5747C98.5125 36.042 98.9445 35.61 99.4772 35.61ZM96.1904 37.6636C96.2452 37.6608 96.299 37.6636 96.3545 37.6636C98.1299 37.6636 99.5717 39.1004 99.5717 40.8758C99.5717 42.6512 98.1299 44.093 96.3545 44.093C94.5791 44.093 93.1423 42.6512 93.1423 40.8758C93.1423 39.1559 94.4919 37.7497 96.1904 37.6636ZM101.431 41.6416C101.964 41.6416 102.396 42.0736 102.396 42.6062C102.396 43.1389 101.964 43.5709 101.431 43.5709C100.899 43.5709 100.467 43.1389 100.467 42.6062C100.467 42.0736 100.899 41.6416 101.431 41.6416ZM91.2179 41.7361C91.7505 41.7361 92.1826 42.1681 92.1826 42.7007C92.1826 43.2334 91.7505 43.6654 91.2179 43.6654C90.6853 43.6654 90.2532 43.2334 90.2532 42.7007C90.2532 42.1681 90.6853 41.7361 91.2179 41.7361ZM96.3247 45.2665C96.8574 45.2665 97.2894 45.6985 97.2894 46.2312C97.2894 46.7638 96.8574 47.1909 96.3247 47.1909C95.7921 47.1909 95.36 46.7638 95.36 46.2312C95.36 45.6985 95.7921 45.2665 96.3247 45.2665ZM87.3642 45.7985C91.5262 45.7985 94.8976 49.1699 94.8976 53.3319C94.8976 57.4939 91.5263 60.8702 87.3642 60.8702C83.2023 60.8702 79.826 57.4939 79.826 53.3319C79.826 49.17 83.2023 45.7985 87.3642 45.7985ZM105.29 45.7985C109.452 45.7985 112.824 49.1699 112.824 53.3319C112.824 57.4939 109.452 60.8702 105.29 60.8702C101.128 60.8702 97.752 57.4939 97.752 53.3319C97.752 49.17 101.128 45.7985 105.29 45.7985Z" fill="#CCCCCC"/>
<path opacity="0.66372" d="M102.135 26.2772C102.135 28.0644 101.527 29.7785 100.444 31.0422C99.362 32.306 97.8938 33.016 96.363 33.016C94.8321 33.016 93.3639 32.306 92.2814 31.0422C91.199 29.7785 90.5908 28.0644 90.5908 26.2772C90.5908 24.4899 91.199 22.7759 92.2814 21.5121C93.3639 20.2483 94.8321 19.5383 96.363 19.5383C97.8938 19.5383 99.362 20.2483 100.444 21.5121C101.527 22.7759 102.135 24.4899 102.135 26.2772Z" fill="url(#paint2_radial_709_2)"/>
<path opacity="0.66372" d="M111.529 42.1956C109.766 42.4864 107.976 42.1653 106.553 41.303C105.129 40.4407 104.19 39.1077 103.941 37.5973C103.692 36.0869 104.153 34.5228 105.224 33.2491C106.295 31.9754 107.887 31.0965 109.651 30.8056C111.414 30.5148 113.205 30.8359 114.628 31.6982C116.051 32.5605 116.99 33.8935 117.239 35.4039C117.488 36.9143 117.027 38.4784 115.956 39.7521C114.885 41.0258 113.293 41.9047 111.529 42.1956Z" fill="url(#paint3_radial_709_2)"/>
<path opacity="0.66372" d="M101.3 57.3204C99.9436 56.1563 99.0391 54.5784 98.7852 52.9338C98.5313 51.2893 98.9488 49.7129 99.9459 48.5513C100.943 47.3897 102.438 46.7382 104.102 46.7401C105.766 46.7419 107.463 47.3969 108.819 48.5611C110.175 49.7253 111.08 51.3032 111.334 52.9477C111.587 54.5922 111.17 56.1687 110.173 57.3302C109.176 58.4918 107.681 59.1433 106.017 59.1415C104.353 59.1396 102.656 58.4846 101.3 57.3204Z" fill="url(#paint4_radial_709_2)"/>
<path opacity="0.66372" d="M89.8858 36.2604C89.8858 37.3193 89.6772 38.3679 89.2719 39.3462C88.8667 40.3245 88.2728 41.2134 87.524 41.9622C86.7752 42.711 85.8863 43.3049 84.908 43.7102C83.9296 44.1154 82.8811 44.324 81.8221 44.324C80.7632 44.324 79.7147 44.1154 78.7363 43.7102C77.758 43.3049 76.8691 42.711 76.1203 41.9622C75.3715 41.2134 74.7776 40.3245 74.3724 39.3462C73.9671 38.3679 73.7585 37.3193 73.7585 36.2604C73.7585 35.2015 73.9671 34.1529 74.3724 33.1746C74.7776 32.1963 75.3715 31.3073 76.1203 30.5586C76.8691 29.8098 77.758 29.2158 78.7363 28.8106C79.7147 28.4054 80.7632 28.1968 81.8221 28.1968C82.8811 28.1968 83.9296 28.4054 84.908 28.8106C85.8863 29.2158 86.7752 29.8098 87.524 30.5586C88.2728 31.3073 88.8667 32.1963 89.2719 33.1746C89.6772 34.1529 89.8858 35.2015 89.8858 36.2604Z" stroke="url(#paint5_radial_709_2)" stroke-width="6.47682"/>
<path opacity="0.66372" d="M104.498 25.8945C104.498 26.9535 104.29 28.002 103.884 28.9803C103.479 29.9587 102.885 30.8476 102.137 31.5964C101.388 32.3451 100.499 32.9391 99.5205 33.3443C98.5422 33.7496 97.4936 33.9581 96.4347 33.9581C95.3758 33.9581 94.3272 33.7496 93.3489 33.3443C92.3706 32.9391 91.4816 32.3451 90.7329 31.5964C89.9841 30.8476 89.3901 29.9587 88.9849 28.9803C88.5797 28.002 88.3711 26.9535 88.3711 25.8945C88.3711 24.8356 88.5797 23.7871 88.9849 22.8087C89.3901 21.8304 89.9841 20.9415 90.7329 20.1927C91.4816 19.4439 92.3706 18.85 93.3489 18.4447C94.3272 18.0395 95.3758 17.8309 96.4347 17.8309C97.4936 17.8309 98.5422 18.0395 99.5205 18.4447C100.499 18.85 101.388 19.4439 102.137 20.1927C102.885 20.9415 103.479 21.8304 103.884 22.8087C104.29 23.7871 104.498 24.8356 104.498 25.8945Z" stroke="url(#paint6_radial_709_2)" stroke-width="6.47682"/>
<path opacity="0.66372" d="M119.005 36.4932C119.005 37.5521 118.796 38.6007 118.391 39.579C117.986 40.5573 117.392 41.4462 116.643 42.195C115.894 42.9438 115.005 43.5377 114.027 43.943C113.049 44.3482 112 44.5568 110.941 44.5568C109.882 44.5568 108.834 44.3482 107.855 43.943C106.877 43.5377 105.988 42.9438 105.239 42.195C104.49 41.4462 103.896 40.5573 103.491 39.579C103.086 38.6007 102.877 37.5521 102.877 36.4932C102.877 35.4342 103.086 34.3857 103.491 33.4074C103.896 32.429 104.49 31.5401 105.239 30.7913C105.988 30.0426 106.877 29.4486 107.855 29.0434C108.834 28.6381 109.882 28.4296 110.941 28.4296C112 28.4296 113.049 28.6381 114.027 29.0434C115.005 29.4486 115.894 30.0426 116.643 30.7913C117.392 31.5401 117.986 32.429 118.391 33.4074C118.796 34.3857 119.005 35.4342 119.005 36.4932Z" stroke="url(#paint7_radial_709_2)" stroke-width="6.47682"/>
<path opacity="0.66372" d="M113.436 53.4902C113.436 54.5492 113.227 55.5977 112.822 56.576C112.417 57.5544 111.823 58.4433 111.074 59.1921C110.325 59.9408 109.436 60.5348 108.458 60.94C107.479 61.3453 106.431 61.5538 105.372 61.5538C104.313 61.5538 103.264 61.3453 102.286 60.94C101.308 60.5348 100.419 59.9408 99.6701 59.1921C98.9213 58.4433 98.3274 57.5544 97.9222 56.576C97.5169 55.5977 97.3083 54.5492 97.3083 53.4902C97.3083 52.4313 97.5169 51.3828 97.9222 50.4044C98.3274 49.4261 98.9213 48.5372 99.6701 47.7884C100.419 47.0396 101.308 46.4457 102.286 46.0404C103.264 45.6352 104.313 45.4266 105.372 45.4266C106.431 45.4266 107.479 45.6352 108.458 46.0404C109.436 46.4457 110.325 47.0396 111.074 47.7884C111.823 48.5372 112.417 49.4261 112.822 50.4044C113.227 51.3828 113.436 52.4313 113.436 53.4902Z" stroke="url(#paint8_radial_709_2)" stroke-width="6.47682"/>
<path opacity="0.66372" d="M95.4627 53.2953C95.4627 54.3542 95.2541 55.4028 94.8489 56.3811C94.4436 57.3594 93.8497 58.2483 93.1009 58.9971C92.3521 59.7459 91.4632 60.3399 90.4849 60.7451C89.5065 61.1503 88.458 61.3589 87.3991 61.3589C86.3401 61.3589 85.2916 61.1503 84.3132 60.7451C83.3349 60.3399 82.446 59.7459 81.6972 58.9971C80.9484 58.2483 80.3545 57.3594 79.9493 56.3811C79.544 55.4028 79.3354 54.3542 79.3354 53.2953C79.3354 52.2364 79.544 51.1878 79.9493 50.2095C80.3545 49.2312 80.9484 48.3422 81.6972 47.5935C82.446 46.8447 83.3349 46.2507 84.3132 45.8455C85.2916 45.4403 86.3401 45.2317 87.3991 45.2317C88.458 45.2317 89.5065 45.4403 90.4849 45.8455C91.4632 46.2507 92.3521 46.8447 93.1009 47.5935C93.8497 48.3422 94.4436 49.2312 94.8489 50.2095C95.2541 51.1878 95.4627 52.2364 95.4627 53.2953Z" stroke="url(#paint9_radial_709_2)" stroke-width="6.47682"/>
<path d="M96.398 15.77C82.4597 15.77 71.1619 27.0685 71.1619 41.0061C71.1619 54.9444 82.4603 66.2423 96.398 66.2423C110.336 66.2423 121.634 54.9438 121.634 41.0061C121.634 27.0679 110.336 15.77 96.398 15.77ZM96.398 17.2349C109.528 17.2349 120.169 27.8779 120.169 41.0062C120.169 54.135 109.528 64.7775 96.398 64.7775C83.2678 64.7775 72.622 54.1346 72.622 41.0062C72.622 27.8774 83.2684 17.2349 96.398 17.2349Z" fill="url(#paint10_linear_709_2)"/>
<path d="M96.3855 12.9979C80.9641 12.9979 68.4646 25.5204 68.4646 40.964C68.4646 56.407 80.9647 68.9239 96.3855 68.9239C111.807 68.9239 124.313 56.4063 124.313 40.964C124.313 25.5211 111.807 12.9979 96.3855 12.9979ZM96.3855 15.795C110.265 15.795 121.519 27.0648 121.519 40.964C121.519 54.8627 110.265 66.1268 96.3855 66.1268C82.5062 66.1268 71.257 54.8619 71.257 40.964C71.257 27.0654 82.5062 15.795 96.3855 15.795Z" fill="url(#paint11_linear_709_2)"/>
<path d="M154.28 67H145.064L130.6 23.864H139.368C145.085 42.3387 148.563 54.2853 149.8 59.704C150.824 54.9253 152.552 48.696 154.984 41.016L160.36 23.864H169L154.28 67Z" fill="#EF0C0C"/>
<path d="M189.056 67H180.992V23.864H189.056V67Z" fill="black"/>
<path d="M230.208 66H204.48V22.864H229.952V29.456H212.608V41.168H228.032V47.696H212.608V59.408H230.208V66Z" fill="black"/>
</g>
<defs>
<radialGradient id="paint0_radial_709_2" cx="0" cy="0" r="1" gradientUnits="userSpaceOnUse" gradientTransform="translate(84.9134 57.6947) rotate(-154.691) scale(6.06616 11.5987)">
<stop stop-color="#F6EBEB" stop-opacity="0.67708"/>
<stop offset="1" stop-color="#F4EDED" stop-opacity="0"/>
</radialGradient>
<radialGradient id="paint1_radial_709_2" cx="0" cy="0" r="1" gradientUnits="userSpaceOnUse" gradientTransform="translate(77.4137 35.1809) rotate(-73.6051) scale(6.06652 11.5983)">
<stop stop-color="#F6EBEB" stop-opacity="0.46087"/>
<stop offset="1" stop-color="#F4EDED" stop-opacity="0"/>
</radialGradient>
<radialGradient id="paint2_radial_709_2" cx="0" cy="0" r="1" gradientUnits="userSpaceOnUse" gradientTransform="translate(96.5018 21.6672) scale(6.0665 11.5983)">
<stop stop-color="#F6EBEB" stop-opacity="0.67708"/>
<stop offset="1" stop-color="#F4EDED" stop-opacity="0"/>
</radialGradient>
<radialGradient id="paint3_radial_709_2" cx="0" cy="0" r="1" gradientUnits="userSpaceOnUse" gradientTransform="translate(115.732 35.2824) rotate(80.6344) scale(6.06623 11.5986)">
<stop stop-color="#F6EBEB" stop-opacity="0.67708"/>
<stop offset="1" stop-color="#F4EDED" stop-opacity="0"/>
</radialGradient>
<radialGradient id="paint4_radial_709_2" cx="0" cy="0" r="1" gradientUnits="userSpaceOnUse" gradientTransform="translate(109.49 56.6683) rotate(130.643) scale(6.06633 11.5986)">
<stop stop-color="#F6EBEB" stop-opacity="0.67708"/>
<stop offset="1" stop-color="#F4EDED" stop-opacity="0"/>
</radialGradient>
<radialGradient id="paint5_radial_709_2" cx="0" cy="0" r="1" gradientUnits="userSpaceOnUse" gradientTransform="translate(81.8221 36.2604) scale(8.56867)">
<stop/>
<stop offset="0.9446" stop-color="#252325" stop-opacity="0"/>
<stop offset="1" stop-color="#0F060F" stop-opacity="0.95652"/>
</radialGradient>
<radialGradient id="paint6_radial_709_2" cx="0" cy="0" r="1" gradientUnits="userSpaceOnUse" gradientTransform="translate(96.4347 25.8945) scale(8.56867)">
<stop/>
<stop offset="0.9446" stop-color="#252325" stop-opacity="0"/>
<stop offset="1" stop-color="#0F060F" stop-opacity="0.95652"/>
</radialGradient>
<radialGradient id="paint7_radial_709_2" cx="0" cy="0" r="1" gradientUnits="userSpaceOnUse" gradientTransform="translate(110.941 36.4932) scale(8.56867)">
<stop/>
<stop offset="0.9446" stop-color="#252325" stop-opacity="0"/>
<stop offset="1" stop-color="#0F060F" stop-opacity="0.95652"/>
</radialGradient>
<radialGradient id="paint8_radial_709_2" cx="0" cy="0" r="1" gradientUnits="userSpaceOnUse" gradientTransform="translate(105.372 53.4902) scale(8.56867)">
<stop/>
<stop offset="0.9446" stop-color="#252325" stop-opacity="0"/>
<stop offset="1" stop-color="#0F060F" stop-opacity="0.95652"/>
</radialGradient>
<radialGradient id="paint9_radial_709_2" cx="0" cy="0" r="1" gradientUnits="userSpaceOnUse" gradientTransform="translate(87.3991 53.2953) scale(8.56867)">
<stop/>
<stop offset="0.9446" stop-color="#252325" stop-opacity="0"/>
<stop offset="1" stop-color="#0F060F" stop-opacity="0.95652"/>
</radialGradient>
<linearGradient id="paint10_linear_709_2" x1="95.9104" y1="9.28798" x2="96.0311" y2="65.4717" gradientUnits="userSpaceOnUse">
<stop stop-color="#5C5858"/>
<stop offset="1" stop-color="white"/>
</linearGradient>
<linearGradient id="paint11_linear_709_2" x1="67.8968" y1="23.7868" x2="124.114" y2="57.2838" gradientUnits="userSpaceOnUse">
<stop stop-color="#6D6969"/>
<stop offset="0.38343" stop-color="white"/>
<stop offset="1" stop-color="#6D6969"/>
</linearGradient>
<clipPath id="clip0_709_2">
<rect width="248" height="83" fill="white"/>
</clipPath>
</defs>
</svg>
